Patient4_TMGait_0pt5_02_right_18_GRF.mot
version=1
nRows=52
nColumns=19
inDegrees=no
endheader
time	F1x	F1y	F1z	M1x	M1y	M1z	F2x	F2y	F2z	M2x	M2y	M2z	EC1x	EC1y	EC1z	EC2x	EC2y	EC2z
23.38	-18.8661	764.538	76.9916	-285.4662	-75.5065	684.3634	10.9947	7.6464	1.927	0.29082	-3.5158	8.3644	-0.0592	0.0182	-0.0073	-0.0462	0.0165	0.9585
23.3934	-14.8892	759.8245	76.4279	-283.4641	-72.9003	680.1452	7.2783	6.471	1.2534	0.70417	-2.241	6.7894	-0.0592	0.0182	-0.0073	-0.0462	0.0165	0.9585
23.4067	-11.1157	755.4946	76.1466	-281.5166	-70.5762	675.7182	4.1197	5.5332	0.68232	1.0676	-1.1862	5.5231	-0.0592	0.0182	-0.0073	-0.0462	0.0165	0.9585
23.4201	-7.7711	752.2758	76.1415	-279.9272	-68.6536	671.6722	1.6979	4.8904	0.24691	1.3642	-0.39508	4.6396	-0.0592	0.0182	-0.0073	-0.0462	0.0165	0.9585
23.4334	-4.9387	750.7244	76.3426	-278.9529	-67.1228	668.5026	0.019836	4.5146	-0.058356	1.5896	0.1474	4.1076	-0.0592	0.0182	-0.0073	-0.0462	0.0165	0.9585
23.4468	-2.6215	751.1007	76.6432	-278.7403	-65.9001	666.4834	-1.0248	4.3409	-0.24927	1.7466	0.48176	3.857	-0.0592	0.0182	-0.0073	-0.0462	0.0165	0.9585
23.4601	-0.75471	753.3057	76.9191	-279.2927	-64.8523	665.5832	-1.5816	4.2685	-0.35137	1.8326	0.65894	3.7659	-0.0592	0.0182	-0.0073	-0.0462	0.0165	0.9585
23.4735	0.7686	756.9133	77.0713	-280.4757	-63.8474	665.4896	-1.8011	4.1697	-0.38352	1.8354	0.72229	3.6817	-0.0592	0.0182	-0.0073	-0.0462	0.0165	0.9585
23.4869	2.0921	761.2556	77.0205	-282.05	-62.7581	665.6731	-1.8237	3.9018	-0.36415	1.7312	0.7116	3.4524	-0.0592	0.0182	-0.0073	-0.0462	0.0165	0.9585
23.5002	3.3628	765.5185	76.7364	-283.7073	-61.5018	665.4683	-1.7333	3.2953	-0.30673	1.4808	0.64952	2.9001	-0.0592	0.0182	-0.0073	-0.0462	0.0165	0.9585
23.5136	4.7165	768.8613	76.2072	-285.1222	-60.0187	664.1847	-1.5975	2.189	-0.22038	1.0397	0.54998	1.8714	-0.0592	0.0182	-0.0073	-0.0462	0.0165	0.9585
23.5269	6.2724	770.5398	75.4485	-286.0038	-58.2806	661.2118	-1.4385	0.42703	-0.11364	0.36247	0.4182	0.2092	-0.0592	0.0182	-0.0073	-0.0462	0.0165	0.9585
23.5403	8.1162	770.0633	74.4597	-286.16	-56.257	656.173	-1.2656	-2.0776	0.01437	-0.57542	0.25223	-2.1668	-0.0592	0.0182	-0.0073	-0.0462	0.0165	0.9585
23.5536	10.3193	767.2669	73.2427	-285.526	-53.928	648.9532	-1.0613	-5.2914	0.16479	-1.7578	0.045185	-5.2241	-0.0592	0.0182	-0.0073	-0.0462	0.0165	0.9585
23.567	12.9256	762.3328	71.7945	-284.1675	-51.2806	639.7465	-0.79083	-8.9599	0.33504	-3.0905	-0.21142	-8.7185	-0.0592	0.0182	-0.0073	-0.0462	0.0165	0.9585
23.5804	15.9438	755.6658	70.1228	-282.2316	-48.3242	628.9497	-0.42595	-12.4856	0.51008	-4.3586	-0.51091	-12.0712	-0.0592	0.0182	-0.0073	-0.0462	0.0165	0.9585
23.5937	19.3279	747.6927	68.2517	-279.8668	-45.1021	617.0088	0.070782	-14.8075	0.66523	-5.1814	-0.83497	-14.2695	-0.0592	0.0182	-0.0073	-0.0462	0.0165	0.9585
23.6071	22.9544	738.6465	66.2127	-277.1394	-41.6909	604.2489	0.70148	-14.2507	0.75238	-4.9618	-1.1294	-13.703	-0.0592	0.0182	-0.0073	-0.0462	0.0165	0.9585
23.6204	26.6325	728.3716	64.0466	-273.9596	-38.2015	590.7031	1.4458	-8.4736	0.70351	-2.8637	-1.3077	-8.1369	-0.0592	0.0182	-0.0073	-0.0462	0.0165	0.9585
23.6338	30.1186	716.2443	61.7696	-270.0552	-34.7457	576.0619	2.2149	5.504	0.41401	2.1778	-1.2226	5.2765	-0.0592	0.0182	-0.0073	-0.0462	0.0165	0.9585
23.6471	33.1629	701.1818	59.388	-264.985	-31.435	559.6467	2.841	31.0573	-0.24264	11.3701	-0.67933	29.7623	-0.0592	0.0182	-0.0073	-0.0462	0.0165	0.9585
23.6605	35.5233	681.7748	56.866	-258.191	-28.345	540.5073	3.0531	71.4163	-1.4164	25.868	0.57008	68.401	-0.0592	0.0182	-0.0073	-0.0462	0.0165	0.9585
23.6739	36.9971	656.4276	54.1233	-249.0557	-25.5034	517.4951	2.4367	128.7203	-3.2466	46.4311	2.8048	123.2277	-0.0592	0.0182	-0.0073	-0.0462	0.0165	0.9585
23.6872	37.4305	623.5787	51.0208	-236.9855	-22.8751	489.4286	0.35444	202.5921	-5.815	72.9119	6.3194	193.8386	-0.0592	0.0182	-0.0073	-0.0462	0.0165	0.9585
23.7006	36.7135	582.0069	47.4015	-221.5263	-20.3875	455.3262	-4.0947	288.5485	-9.1261	103.6777	11.4016	275.8923	-0.0592	0.0182	-0.0073	-0.0462	0.0165	0.9585
23.7139	34.7851	531.2601	43.1581	-202.5235	-17.9827	414.7381	-10.9678	377.6238	-13.5278	135.4464	18.3585	360.7514	-0.0592	0.0182	-0.0073	-0.0462	0.0165	0.9585
23.7273	31.6072	472.0996	38.3282	-180.2775	-15.6906	368.1136	-19.0819	459.7222	-19.6079	164.5261	27.2552	438.6014	-0.0592	0.0182	-0.0073	-0.0462	0.0165	0.9585
23.7406	27.1917	406.6022	33.1858	-155.5639	-13.6911	316.9113	-26.8973	529.1372	-26.9388	188.8561	37.092	503.7785	-0.0592	0.0182	-0.0073	-0.0462	0.0165	0.9585
23.754	21.6431	337.7677	28.1119	-129.4957	-12.2017	263.3428	-33.2705	585.2448	-34.8099	208.2548	46.7729	555.5403	-0.0592	0.0182	-0.0073	-0.0462	0.0165	0.9585
23.7674	15.268	269.1352	23.3929	-103.4001	-11.297	210.0621	-37.6175	630.1887	-42.1255	223.5818	55.063	595.8728	-0.0592	0.0182	-0.0073	-0.0462	0.0165	0.9585
23.7807	8.5825	204.3786	19.1172	-78.6814	-10.832	159.8374	-39.8629	666.652	-48.2667	235.878	61.3812	627.3841	-0.0592	0.0182	-0.0073	-0.0462	0.0165	0.9585
23.7941	2.244	146.7833	15.2769	-56.6134	-10.5392	115.1618	-40.1816	696.7523	-52.8442	245.949	65.4585	652.1862	-0.0592	0.0182	-0.0073	-0.0462	0.0165	0.9585
23.8074	-3.0031	98.6251	11.8618	-38.098	-10.1187	77.7506	-38.8682	721.6341	-56.073	254.2045	67.6313	671.5148	-0.0592	0.0182	-0.0073	-0.0462	0.0165	0.9585
23.8208	-6.5679	60.8134	8.8683	-23.5192	-9.331	48.3013	-36.2814	741.5108	-58.2543	260.6989	68.3279	685.7658	-0.0592	0.0182	-0.0073	-0.0462	0.0165	0.9585
23.8341	-8.1884	32.9733	6.2857	-12.7648	-8.0664	26.5262	-32.8486	756.069	-59.8004	265.2923	68.0942	694.8737	-0.0592	0.0182	-0.0073	-0.0462	0.0165	0.9585
23.8475	-8.0599	13.8769	4.0994	-5.3815	-6.3899	11.4944	-29.0307	765.107	-60.9398	267.8922	67.3178	698.8764	-0.0592	0.0182	-0.0073	-0.0462	0.0165	0.9585
23.8609	-6.8079	1.951	2.3458	-0.7714	-4.5767	2.0265	-25.2328	768.9085	-61.713	268.5995	66.1982	698.2242	-0.0592	0.0182	-0.0073	-0.0462	0.0165	0.9585
23.8742	-5.1025	-4.4811	1.0632	1.7093	-2.926	-3.1481	-21.7629	768.2827	-62.0425	267.7114	64.7906	693.7979	-0.0592	0.0182	-0.0073	-0.0462	0.0165	0.9585
23.8876	-3.4028	-7.057	0.21791	2.698	-1.6009	-5.2746	-18.824	764.3674	-61.8828	265.6451	63.1314	686.7162	-0.0592	0.0182	-0.0073	-0.0462	0.0165	0.9585
23.9009	-1.9396	-7.2055	-0.28121	2.7504	-0.63035	-5.4789	-16.5518	758.4629	-61.3261	262.8687	61.356	678.2023	-0.0592	0.0182	-0.0073	-0.0462	0.0165	0.9585
23.9143	-0.81356	-6.0355	-0.52321	2.2967	0.0092903	-4.6326	-15.0346	751.9263	-60.5226	259.8675	59.6322	669.4738	-0.0592	0.0182	-0.0073	-0.0462	0.0165	0.9585
23.9276	-0.0231	-4.3327	-0.59922	1.6401	0.38604	-3.3538	-14.3154	746.0647	-59.6865	257.107	58.1765	661.6496	-0.0592	0.0182	-0.0073	-0.0462	0.0165	0.9585
23.941	0.47709	-2.5873	-0.57693	0.97061	0.57237	-2.0214	-14.3636	742.0432	-58.9169	255.0127	57.0755	655.6674	-0.0592	0.0182	-0.0073	-0.0462	0.0165	0.9585
23.9544	0.75065	-1.0563	-0.51255	0.38898	0.64094	-0.83747	-15.0738	740.7793	-58.2859	253.9258	56.365	652.2042	-0.0592	0.0182	-0.0073	-0.0462	0.0165	0.9585
23.9677	0.86477	0.15042	-0.43387	-0.062853	0.64077	0.1035	-16.2948	742.8148	-57.7502	254.0589	55.9549	651.6	-0.0592	0.0182	-0.0073	-0.0462	0.0165	0.9585
23.9811	0.8731	1.0213	-0.36057	-0.38089	0.60667	0.79572	-17.8628	748.199	-57.2723	255.445	55.7539	653.7798	-0.0592	0.0182	-0.0073	-0.0462	0.0165	0.9585
23.9944	0.82801	1.6	-0.30492	-0.58222	0.56519	1.2676	-19.6073	756.4853	-56.7549	257.9341	55.6119	658.2669	-0.0592	0.0182	-0.0073	-0.0462	0.0165	0.9585
24.0078	0.7571	1.9553	-0.26908	-0.69478	0.52611	1.5719	-21.3589	766.8184	-56.1645	261.2164	55.4378	664.2784	-0.0592	0.0182	-0.0073	-0.0462	0.0165	0.9585
24.0211	0.6786	2.1571	-0.25466	-0.75044	0.49722	1.7568	-22.9566	778.0665	-55.4608	264.8767	55.1332	670.8284	-0.0592	0.0182	-0.0073	-0.0462	0.0165	0.9585
24.0345	0.6033	2.2628	-0.24657	-0.77619	0.46871	1.863	-24.2762	788.9886	-54.6749	268.454	54.6778	676.8866	-0.0592	0.0182	-0.0073	-0.0462	0.0165	0.9585
24.0479	0.53459	2.3116	-0.24502	-0.79113	0.44211	1.9202	-25.204	798.406	-53.8184	271.5113	54.0362	681.4905	-0.0592	0.0182	-0.0073	-0.0462	0.0165	0.9585
24.0612	0.47479	2.3246	-0.23688	-0.80209	0.40863	1.9384	-25.6429	805.3461	-52.9344	273.6885	53.2094	683.8641	-0.0592	0.0182	-0.0073	-0.0462	0.0165	0.9585
